<?xml version="1.0" encoding="UTF-8" standalone="no"?>
<!-- Created with Inkscape (http://www.inkscape.org/) -->

<svg
   width="65%"
   height="65%"
   viewBox="0 0 120.03351 61.306801"
   version="1.1"
   id="svg5"
   xml:space="preserve"
   inkscape:version="1.2 (dc2aedaf03, 2022-05-15)"
   sodipodi:docname="logo.svg"
   xmlns:inkscape="http://www.inkscape.org/namespaces/inkscape"
   xmlns:sodipodi="http://sodipodi.sourceforge.net/DTD/sodipodi-0.dtd"
   xmlns="http://www.w3.org/2000/svg"
   xmlns:svg="http://www.w3.org/2000/svg"><defs
     id="defs2" /><g
     inkscape:label="Calque 1"
     inkscape:groupmode="layer"
     id="layer1"
     transform="translate(-7.0155376,-34.208552)"><path
       style="fill:#39a2df;stroke:#ffffff;stroke-width:1.05833;stroke-miterlimit:0;stroke-dasharray:4.23333, 1.05833;stroke-dashoffset:0;stroke-opacity:1"
       d="M 7.1374005,86.615133 H 125.08169"
       id="path374"
       sodipodi:nodetypes="cc" /><path
       style="fill:none;stroke:#ffffff;stroke-width:3.63433;stroke-miterlimit:0;stroke-dasharray:none;stroke-dashoffset:0;stroke-opacity:1"
       d="M 127.04905,86.325481 H 80.584334 c -6.504271,0 -10.406844,-5.637042 -16.043886,-4.769802 C 58.903406,82.422916 53.916787,93.480186 50.014222,93.697 46.111657,93.913814 40.908227,65.945403 40.908227,65.945403 l -1.95128,-8.889179 C 37.005662,48.167038 35.704805,36.459334 25.514762,36.025717 H 7.0155376"
       id="path931"
       sodipodi:nodetypes="cscsssc" /><g
       aria-label="D Ymation"
       id="text1045"
       style="font-weight:bold;font-size:38.4541px;font-family:Arial;-inkscape-font-specification:'Arial Bold';fill:#ffffff;stroke-width:19.0756;stroke-miterlimit:0"><path
         d="M 7.1072607,46.007953 H 17.265302 q 3.436084,0 5.23862,0.525739 2.422158,0.713504 4.149589,2.534817 1.72743,1.821312 2.628698,4.468787 0.901268,2.628698 0.901268,6.49664 0,3.398531 -0.844939,5.858242 -1.032703,3.004227 -2.947897,4.863092 -1.445784,1.408231 -3.905495,2.196841 -1.840089,0.582069 -4.919421,0.582069 H 7.1072607 Z m 5.5578193,4.656551 v 18.231901 h 4.149588 q 2.328276,0 3.360979,-0.26287 1.351902,-0.337976 2.234393,-1.145362 0.901268,-0.807385 1.464561,-2.647474 0.563292,-1.858866 0.563292,-5.050856 0,-3.191991 -0.563292,-4.900645 -0.563293,-1.708654 -1.577219,-2.666251 -1.013927,-0.957598 -2.572369,-1.295573 -1.164138,-0.26287 -4.562669,-0.26287 z"
         id="path908" /><path
         d="M 52.114334,73.53418 V 61.949131 L 42.031398,46.007953 h 6.515417 l 6.477864,10.890321 6.346429,-10.890321 h 6.402758 L 57.653377,61.986683 V 73.53418 Z"
         id="path910" /><path
         d="m 68.863167,64.036383 h 2.316318 v 1.296781 q 1.24312,-1.51142 2.960236,-1.51142 0.912217,0 1.582966,0.375619 0.670748,0.375619 1.100027,1.135801 0.626032,-0.760182 1.35044,-1.135801 0.724408,-0.375619 1.547193,-0.375619 1.046367,0 1.770775,0.429279 0.724408,0.420336 1.082141,1.24312 0.259356,0.608145 0.259356,1.967529 v 6.072508 h -2.513071 v -5.42859 q 0,-1.413043 -0.259356,-1.824435 -0.348789,-0.536599 -1.073197,-0.536599 -0.527655,0 -0.992707,0.321959 -0.465053,0.321959 -0.670749,0.947991 -0.205696,0.617088 -0.205696,1.958585 v 4.561089 h -2.51307 v -5.205007 q 0,-1.386213 -0.13415,-1.788662 -0.13415,-0.402449 -0.420335,-0.599202 -0.277243,-0.196753 -0.760182,-0.196753 -0.581315,0 -1.046367,0.313016 -0.465052,0.313016 -0.670749,0.903274 -0.196752,0.590259 -0.196752,1.958585 v 4.614749 h -2.513071 z"
         style="font-size:18.3159px"
         id="path912" /><path
         d="m 87.214839,66.934016 -2.280545,-0.411392 q 0.384563,-1.37727 1.32361,-2.039075 0.939048,-0.661805 2.790313,-0.661805 1.681343,0 2.504127,0.402449 0.822785,0.393506 1.153688,1.010594 0.339845,0.608145 0.339845,2.244771 l -0.02683,2.933406 q 0,1.252064 0.116263,1.851266 0.125207,0.590258 0.456109,1.26995 h -2.48624 q -0.09838,-0.250413 -0.24147,-0.742295 -0.0626,-0.223583 -0.08943,-0.295129 -0.643918,0.626031 -1.37727,0.939047 -0.733351,0.313016 -1.565079,0.313016 -1.466703,0 -2.316317,-0.795955 -0.840672,-0.795954 -0.840672,-2.012244 0,-0.804898 0.384563,-1.43093 0.384562,-0.634975 1.073197,-0.965878 0.697578,-0.339846 2.003302,-0.590258 1.761832,-0.330903 2.441524,-0.617089 v -0.250412 q 0,-0.724409 -0.357733,-1.028481 -0.357732,-0.313016 -1.35044,-0.313016 -0.670748,0 -1.046367,0.268299 -0.375619,0.259356 -0.608145,0.921161 z m 3.362685,2.039075 q -0.482939,0.16098 -1.529307,0.384562 -1.046367,0.223583 -1.368326,0.438223 -0.491882,0.348789 -0.491882,0.885387 0,0.527656 0.393505,0.912218 0.393506,0.384563 1.001651,0.384563 0.679692,0 1.29678,-0.447166 0.456109,-0.339846 0.599202,-0.831728 0.09838,-0.321959 0.09838,-1.225233 z"
         style="font-size:18.3159px"
         id="path914" /><path
         d="m 99.878568,64.036383 v 2.003302 h -1.717116 v 3.827737 q 0,1.162631 0.04472,1.359383 0.05366,0.18781 0.223583,0.313016 0.178866,0.125207 0.429279,0.125207 0.348789,0 1.010594,-0.24147 l 0.214632,1.949642 q -0.876437,0.375619 -1.985407,0.375619 -0.679692,0 -1.225234,-0.223583 -0.545542,-0.232526 -0.804898,-0.590258 -0.250413,-0.366676 -0.348789,-0.983764 -0.08049,-0.438223 -0.08049,-1.770776 v -4.140753 h -1.153687 v -2.003302 h 1.153687 v -1.887038 l 2.522014,-1.466703 v 3.353741 z"
         style="font-size:18.3159px"
         id="path916" /><path
         d="m 101.62252,62.748547 v -2.325261 h 2.51307 v 2.325261 z m 0,10.785633 v -9.497797 h 2.51307 v 9.497797 z"
         style="font-size:18.3159px"
         id="path918" /><path
         d="m 106.12995,68.651132 q 0,-1.252064 0.61709,-2.423637 0.61708,-1.171574 1.74394,-1.788663 1.1358,-0.617088 2.53096,-0.617088 2.15534,0 3.53261,1.4041 1.37727,1.395156 1.37727,3.532608 0,2.155338 -1.39516,3.577324 -1.38621,1.413043 -3.49683,1.413043 -1.30573,0 -2.49519,-0.590258 -1.18052,-0.590259 -1.7976,-1.726059 -0.61709,-1.144744 -0.61709,-2.78137 z m 2.57567,0.13415 q 0,1.413043 0.67075,2.164281 0.67075,0.751238 1.65451,0.751238 0.98377,0 1.64557,-0.751238 0.67075,-0.751238 0.67075,-2.182168 0,-1.395157 -0.67075,-2.146395 -0.6618,-0.751238 -1.64557,-0.751238 -0.98376,0 -1.65451,0.751238 -0.67075,0.751238 -0.67075,2.164282 z"
         style="font-size:18.3159px"
         id="path920" /><path
         d="m 126.53858,73.53418 h -2.51307 v -4.847275 q 0,-1.538249 -0.16098,-1.985415 -0.16098,-0.456109 -0.52765,-0.706521 -0.35774,-0.250413 -0.86751,-0.250413 -0.65286,0 -1.17157,0.357732 -0.51871,0.357733 -0.71546,0.947991 -0.18781,0.590259 -0.18781,2.182168 v 4.301733 h -2.51307 v -9.497797 h 2.3342 v 1.395157 q 1.24312,-1.609796 3.13016,-1.609796 0.83173,0 1.52036,0.304073 0.68864,0.295129 1.03743,0.760181 0.35773,0.465052 0.49188,1.055311 0.14309,0.590258 0.14309,1.690285 z"
         style="font-size:18.3159px"
         id="path922" /></g><g
       aria-label="DYNAMIC AUTOMATION"
       id="text4328"
       style="font-weight:bold;font-size:4.23333px;font-family:Arial;-inkscape-font-specification:'Arial Bold';fill:#ffffff;fill-opacity:1;stroke-width:1.4;stroke-miterlimit:0"><path
         d="m 77.643861,90.009072 h 1.118277 q 0.378271,0 0.576708,0.05788 0.26665,0.07855 0.456819,0.279053 0.19017,0.200504 0.289388,0.491959 0.09922,0.289388 0.09922,0.715201 0,0.374137 -0.09302,0.644922 -0.113688,0.330729 -0.324527,0.535367 -0.159164,0.155029 -0.429948,0.241846 -0.202571,0.06408 -0.541568,0.06408 h -1.15135 z m 0.611848,0.51263 v 2.007111 h 0.456819 q 0.256315,0 0.370003,-0.02894 0.148828,-0.03721 0.24598,-0.126091 0.09922,-0.08888 0.16123,-0.291454 0.06201,-0.204639 0.06201,-0.556038 0,-0.3514 -0.06201,-0.539502 -0.06201,-0.188102 -0.173632,-0.293522 -0.111621,-0.10542 -0.283187,-0.142627 -0.128157,-0.02894 -0.502295,-0.02894 z"
         id="path925"
         style="fill:#ffffff;fill-opacity:1" /><path
         d="m 81.498919,93.039375 v -1.275373 l -1.110009,-1.75493 h 0.717269 l 0.713134,1.198892 0.698665,-1.198892 h 0.704866 l -1.114143,1.759064 v 1.271239 z"
         id="path927"
         style="fill:#ffffff;fill-opacity:1" /><path
         d="m 83.532902,93.039375 v -3.030303 h 0.595312 l 1.240233,2.023647 v -2.023647 h 0.568441 v 3.030303 h -0.613916 l -1.22163,-1.976105 v 1.976105 z"
         id="path929"
         style="fill:#ffffff;fill-opacity:1" /><path
         d="m 89.316523,93.039375 h -0.665592 l -0.264583,-0.688329 h -1.211294 l -0.250114,0.688329 h -0.649055 l 1.180288,-3.030303 h 0.646989 z m -1.126545,-1.198892 -0.417545,-1.124478 -0.409277,1.124478 z"
         id="path932"
         style="fill:#ffffff;fill-opacity:1" /><path
         d="m 89.632782,93.039375 v -3.030303 h 0.915706 l 0.549837,2.067055 0.543635,-2.067055 h 0.917773 v 3.030303 h -0.56844 v -2.385382 l -0.601513,2.385382 h -0.589111 l -0.599446,-2.385382 v 2.385382 z"
         id="path934"
         style="fill:#ffffff;fill-opacity:1" /><path
         d="m 93.148845,93.039375 v -3.030303 h 0.611848 v 3.030303 z"
         id="path936"
         style="fill:#ffffff;fill-opacity:1" /><path
         d="m 96.2825,91.925232 0.593245,0.188102 q -0.136426,0.496094 -0.454753,0.737939 -0.316259,0.239779 -0.804084,0.239779 -0.603581,0 -0.992187,-0.411344 -0.388606,-0.413411 -0.388606,-1.128613 0,-0.756542 0.390673,-1.174087 0.390674,-0.419613 1.027327,-0.419613 0.556038,0 0.903303,0.328662 0.206706,0.194304 0.310058,0.558105 l -0.605647,0.144694 q -0.05374,-0.235644 -0.225309,-0.37207 -0.169499,-0.136425 -0.413411,-0.136425 -0.33693,0 -0.54777,0.241845 -0.208772,0.241846 -0.208772,0.783414 0,0.574642 0.206705,0.818554 0.206706,0.243913 0.537435,0.243913 0.243912,0 0.419612,-0.15503 0.1757,-0.155029 0.252181,-0.487825 z"
         id="path938"
         style="fill:#ffffff;fill-opacity:1" /><path
         d="m 101.15248,93.039375 h -0.66559 l -0.26458,-0.688329 H 99.011014 L 98.7609,93.039375 h -0.649055 l 1.180289,-3.030303 h 0.646988 z m -1.12654,-1.198892 -0.417547,-1.124478 -0.409277,1.124478 z"
         id="path940"
         style="fill:#ffffff;fill-opacity:1" /><path
         d="m 101.47288,90.009072 h 0.61185 v 1.641242 q 0,0.390673 0.0227,0.506429 0.0393,0.186035 0.18604,0.299723 0.14883,0.111621 0.40514,0.111621 0.26045,0 0.39274,-0.10542 0.13229,-0.107487 0.15916,-0.262516 0.0269,-0.155029 0.0269,-0.514697 v -1.676382 h 0.61184 v 1.591633 q 0,0.545702 -0.0496,0.771011 -0.0496,0.225309 -0.18397,0.380339 -0.13229,0.155029 -0.35554,0.248046 -0.22324,0.09095 -0.58291,0.09095 -0.43408,0 -0.65939,-0.09922 -0.22324,-0.101286 -0.35346,-0.260449 -0.13023,-0.16123 -0.17157,-0.33693 -0.0599,-0.260449 -0.0599,-0.768945 z"
         id="path942"
         style="fill:#ffffff;fill-opacity:1" /><path
         d="m 105.21631,93.039375 v -2.517673 h -0.89917 v -0.51263 h 2.40812 v 0.51263 h -0.8971 v 2.517673 z"
         id="path944"
         style="fill:#ffffff;fill-opacity:1" /><path
         d="m 106.91957,91.542827 q 0,-0.46302 0.13849,-0.777213 0.10335,-0.23151 0.28112,-0.415478 0.17983,-0.183968 0.39274,-0.272851 0.28319,-0.11989 0.65319,-0.11989 0.66973,0 1.07073,0.415479 0.40308,0.415478 0.40308,1.155484 0,0.733804 -0.39894,1.149283 -0.39894,0.413411 -1.0666,0.413411 -0.67593,0 -1.07487,-0.411344 -0.39894,-0.413411 -0.39894,-1.136881 z m 0.63045,-0.02067 q 0,0.514696 0.23771,0.781347 0.23771,0.264583 0.60358,0.264583 0.36587,0 0.59945,-0.262516 0.23564,-0.264584 0.23564,-0.791683 0,-0.520898 -0.22944,-0.777213 -0.22738,-0.256314 -0.60565,-0.256314 -0.37827,0 -0.60978,0.260449 -0.23151,0.258381 -0.23151,0.781347 z"
         id="path946"
         style="fill:#ffffff;fill-opacity:1" /><path
         d="m 110.32814,93.039375 v -3.030303 h 0.91571 l 0.54983,2.067055 0.54364,-2.067055 h 0.91777 v 3.030303 h -0.56844 v -2.385382 l -0.60151,2.385382 h -0.58911 l -0.59945,-2.385382 v 2.385382 z"
         id="path948"
         style="fill:#ffffff;fill-opacity:1" /><path
         d="m 116.59546,93.039375 h -0.6656 l -0.26458,-0.688329 h -1.21129 l -0.25012,0.688329 h -0.64905 l 1.18029,-3.030303 h 0.64698 z m -1.12655,-1.198892 -0.41754,-1.124478 -0.40928,1.124478 z"
         id="path950"
         style="fill:#ffffff;fill-opacity:1" /><path
         d="m 117.28792,93.039375 v -2.517673 h -0.89917 v -0.51263 h 2.40812 v 0.51263 h -0.8971 v 2.517673 z"
         id="path952"
         style="fill:#ffffff;fill-opacity:1" /><path
         d="m 119.17307,93.039375 v -3.030303 h 0.61185 v 3.030303 z"
         id="path954"
         style="fill:#ffffff;fill-opacity:1" /><path
         d="m 120.24381,91.542827 q 0,-0.46302 0.13849,-0.777213 0.10335,-0.23151 0.28112,-0.415478 0.17984,-0.183968 0.39274,-0.272851 0.28319,-0.11989 0.65319,-0.11989 0.66973,0 1.07074,0.415479 0.40307,0.415478 0.40307,1.155484 0,0.733804 -0.39894,1.149283 -0.39894,0.413411 -1.0666,0.413411 -0.67593,0 -1.07487,-0.411344 -0.39894,-0.413411 -0.39894,-1.136881 z m 0.63045,-0.02067 q 0,0.514696 0.23771,0.781347 0.23771,0.264583 0.60358,0.264583 0.36587,0 0.59945,-0.262516 0.23564,-0.264584 0.23564,-0.791683 0,-0.520898 -0.22944,-0.777213 -0.22738,-0.256314 -0.60565,-0.256314 -0.37827,0 -0.60978,0.260449 -0.23151,0.258381 -0.23151,0.781347 z"
         id="path956"
         style="fill:#ffffff;fill-opacity:1" /><path
         d="m 123.66685,93.039375 v -3.030303 h 0.59532 l 1.24023,2.023647 v -2.023647 h 0.56844 v 3.030303 h -0.61392 l -1.22163,-1.976105 v 1.976105 z"
         id="path958"
         style="fill:#ffffff;fill-opacity:1" />
        </g>
    </g></svg>